<?xml version="1.0" standalone="no"?>
<!DOCTYPE svg PUBLIC "-//W3C//DTD SVG 20010904//EN"
 "http://www.w3.org/TR/2001/REC-SVG-20010904/DTD/svg10.dtd">
<svg version="1.0" xmlns="http://www.w3.org/2000/svg"
 width="1084.000000pt" height="1084.000000pt" viewBox="0 0 1084.000000 1084.000000"
 preserveAspectRatio="xMidYMid meet">
<metadata>
Created by potrace 1.11, written by Peter Selinger 2001-2013
</metadata>
<g transform="translate(0.000000,1084.000000) scale(0.100000,-0.100000)"
fill="#000000" stroke="none">
<path d="M2860 8310 c0 -43 -3 -50 -20 -50 -18 0 -20 -7 -20 -70 0 -63 -2 -70
-20 -70 -18 0 -20 -7 -20 -70 0 -63 -2 -70 -20 -70 -18 0 -20 -7 -20 -65 l0
-65 -30 0 -30 0 0 -70 c0 -63 -2 -70 -20 -70 -18 0 -20 -7 -20 -70 0 -63 -2
-70 -20 -70 -18 0 -20 -7 -20 -60 l0 -60 -30 0 -30 0 0 -70 c0 -63 -2 -70 -20
-70 -18 0 -20 -7 -20 -70 0 -63 -2 -70 -20 -70 -18 0 -20 -7 -20 -70 l0 -70
-30 0 -30 0 0 -70 c0 -63 -2 -70 -20 -70 -18 0 -20 -7 -20 -65 0 -58 -2 -65
-20 -65 -18 0 -20 -7 -20 -70 0 -68 -1 -70 -25 -70 -24 0 -25 -2 -25 -70 0
-68 -1 -70 -25 -70 -24 0 -25 -2 -25 -70 0 -63 -2 -70 -20 -70 -18 0 -20 -7
-20 -60 0 -57 -1 -60 -25 -60 -24 0 -25 -2 -25 -70 0 -63 -2 -70 -20 -70 -18
0 -20 -7 -20 -70 0 -63 -2 -70 -20 -70 -18 0 -20 -7 -20 -70 l0 -70 -30 0 -30
0 0 -70 c0 -63 -2 -70 -20 -70 -18 0 -20 -7 -20 -65 0 -58 -2 -65 -20 -65 -18
0 -20 -7 -20 -70 0 -63 -2 -70 -20 -70 -18 0 -20 -7 -20 -70 l0 -70 -30 0 -30
0 0 -70 c0 -63 -2 -70 -20 -70 -18 0 -20 -7 -20 -60 0 -53 -2 -60 -20 -60 -18
0 -20 -7 -20 -70 l0 -70 -30 0 -30 0 0 -70 c0 -63 -2 -70 -20 -70 -18 0 -20
-7 -20 -70 0 -63 -2 -70 -20 -70 -18 0 -20 -7 -20 -70 l0 -70 -30 0 -30 0 0
-65 c0 -58 -2 -65 -20 -65 -18 0 -20 -7 -20 -70 0 -63 -2 -70 -20 -70 -18 0
-20 -7 -20 -70 0 -68 -1 -70 -25 -70 -24 0 -25 -2 -25 -70 0 -68 -1 -70 -25
-70 -24 0 -25 -2 -25 -70 0 -63 -2 -70 -20 -70 -18 0 -20 -7 -20 -60 0 -57 -1
-60 -25 -60 -24 0 -25 -2 -25 -70 0 -63 -2 -70 -20 -70 -18 0 -20 -7 -20 -70
0 -68 -1 -70 -25 -70 -24 0 -25 -2 -25 -70 0 -68 -1 -70 -25 -70 -24 0 -25 -2
-25 -65 0 -58 -2 -65 -20 -65 -18 0 -20 -7 -20 -70 0 -63 -2 -70 -20 -70 -13
0 -20 -7 -20 -20 0 -20 7 -20 505 -20 l505 0 0 40 c0 33 3 40 20 40 18 0 20 7
20 70 0 63 2 70 20 70 19 0 20 7 20 95 0 95 0 95 25 95 24 0 25 2 25 65 0 58
2 65 20 65 19 0 20 7 20 95 0 95 0 95 25 95 25 0 25 1 25 90 0 89 0 90 25 90
24 0 25 2 25 70 0 63 2 70 20 70 19 0 20 7 20 90 0 83 1 90 20 90 18 0 20 7
20 65 l0 65 30 0 c25 0 30 4 30 25 l0 25 705 0 705 0 0 -90 c0 -89 0 -90 25
-90 24 0 25 -2 25 -70 0 -68 1 -70 25 -70 25 0 25 -1 25 -90 0 -83 1 -90 20
-90 18 0 20 -7 20 -70 0 -68 1 -70 25 -70 25 0 25 -1 25 -90 0 -83 1 -90 20
-90 19 0 20 -7 20 -90 0 -89 0 -90 25 -90 24 0 25 -2 25 -70 0 -68 1 -70 25
-70 25 0 25 0 25 -95 0 -88 1 -95 20 -95 17 0 20 -7 20 -40 l0 -40 505 0 505
0 0 65 c0 63 -1 65 -25 65 -24 0 -25 2 -25 70 0 68 -1 70 -25 70 -24 0 -25 2
-25 70 0 63 -2 70 -20 70 -18 0 -20 7 -20 65 0 58 -2 65 -20 65 -18 0 -20 7
-20 65 0 63 -1 65 -25 65 -24 0 -25 2 -25 70 0 68 -1 70 -25 70 -24 0 -25 2
-25 70 0 63 -2 70 -20 70 -18 0 -20 7 -20 70 0 68 -1 70 -25 70 -24 0 -25 2
-25 70 0 63 -2 70 -20 70 -18 0 -20 7 -20 65 0 63 -1 65 -25 65 -24 0 -25 2
-25 70 0 68 -1 70 -25 70 -24 0 -25 2 -25 70 0 63 -2 70 -20 70 -18 0 -20 7
-20 60 0 53 -2 60 -20 60 -18 0 -20 7 -20 70 l0 70 -30 0 -30 0 0 70 c0 63 -2
70 -20 70 -17 0 -20 7 -20 50 0 43 -3 50 -20 50 -18 0 -20 7 -20 70 l0 70 -30
0 -30 0 0 65 c0 58 -2 65 -20 65 -18 0 -20 7 -20 65 0 58 -2 65 -20 65 -18 0
-20 7 -20 70 0 63 -2 70 -20 70 -18 0 -20 7 -20 70 l0 70 -30 0 -30 0 0 65 c0
58 -2 65 -20 65 -18 0 -20 7 -20 70 0 63 -2 70 -20 70 -18 0 -20 7 -20 70 0
68 -1 70 -25 70 -24 0 -25 2 -25 70 0 68 -1 70 -25 70 -24 0 -25 2 -25 70 0
63 -2 70 -20 70 -18 0 -20 7 -20 65 0 63 -1 65 -25 65 -25 0 -25 1 -25 90 0
83 -1 90 -20 90 -18 0 -20 7 -20 70 0 68 -1 70 -25 70 -24 0 -25 2 -25 70 0
68 -1 70 -25 70 -24 0 -25 3 -25 60 0 53 -2 60 -20 60 -18 0 -20 7 -20 70 0
63 -2 70 -20 70 -18 0 -20 7 -20 70 l0 70 -30 0 -30 0 0 70 c0 63 -2 70 -20
70 -18 0 -20 7 -20 70 0 63 -2 70 -20 70 -18 0 -20 7 -20 70 l0 70 -30 0 c-29
0 -30 2 -30 45 0 38 -3 45 -20 45 -18 0 -20 7 -20 65 0 58 -2 65 -20 65 -18 0
-20 7 -20 65 0 58 -2 65 -20 65 -18 0 -20 7 -20 70 l0 70 -30 0 c-27 0 -30 3
-30 30 l0 30 -275 0 -275 0 0 -50z m330 -1640 c0 -83 1 -90 20 -90 19 0 20 -7
20 -90 0 -89 0 -90 25 -90 25 0 25 -1 25 -90 0 -89 0 -90 25 -90 24 0 25 -2
25 -70 0 -63 2 -70 20 -70 19 0 20 -7 20 -100 0 -93 1 -100 20 -100 18 0 20
-7 20 -60 l0 -60 30 0 30 0 0 -95 c0 -88 1 -95 20 -95 19 0 20 -7 20 -90 0
-83 1 -90 20 -90 18 0 20 -7 20 -70 0 -63 2 -70 20 -70 18 0 20 -7 20 -70 l0
-70 30 0 30 0 0 -60 0 -60 -505 0 -505 0 0 60 c0 53 2 60 20 60 18 0 20 7 20
70 l0 70 30 0 30 0 0 90 c0 83 1 90 20 90 18 0 20 7 20 70 0 63 2 70 20 70 19
0 20 7 20 95 0 88 1 95 20 95 18 0 20 7 20 60 l0 60 30 0 30 0 0 100 c0 93 1
100 20 100 18 0 20 7 20 70 0 63 2 70 20 70 19 0 20 7 20 90 0 89 0 90 25 90
24 0 25 2 25 65 0 63 1 65 25 65 25 0 25 1 25 90 0 83 1 90 20 90 15 0 20 7
20 25 0 20 5 25 25 25 25 0 25 -1 25 -90z"/>
<path d="M5890 6010 l0 -2350 -25 0 c-18 0 -25 -5 -25 -20 0 -15 7 -20 25 -20
24 0 25 -2 25 -70 0 -68 -1 -70 -25 -70 -20 0 -25 -5 -25 -25 0 -20 5 -25 25
-25 23 0 25 -4 25 -45 0 -41 -2 -45 -25 -45 -18 0 -25 -5 -25 -20 0 -15 7 -20
25 -20 24 0 25 -2 25 -70 0 -68 -1 -70 -25 -70 -20 0 -25 -5 -25 -25 0 -20 5
-25 25 -25 24 0 25 -2 25 -70 0 -68 -1 -70 -25 -70 -18 0 -25 -5 -25 -20 0
-15 7 -20 25 -20 18 0 25 -5 25 -20 0 -20 7 -20 1740 -20 l1740 0 0 405 0 405
-1240 0 -1240 0 0 2230 0 2230 25 0 25 0 0 100 0 100 -525 0 -525 0 0 -2350z"/>
</g>
</svg>
